<?xml version="1.0" encoding="utf-8"?>
<!-- Generator: Adobe Illustrator 19.0.0, SVG Export Plug-In . SVG Version: 6.00 Build 0)  -->
<svg version="1.1" id="Layer_1" xmlns="http://www.w3.org/2000/svg" xmlns:xlink="http://www.w3.org/1999/xlink" x="0px" y="0px"
	 viewBox="0 0 817.7 151.3" style="enable-background:new 0 0 817.7 151.3;" xml:space="preserve">
<style type="text/css">
	.st0{fill-rule:evenodd;clip-rule:evenodd;fill:#FD1D62;}
	.st1{fill-rule:evenodd;clip-rule:evenodd;fill:#CE689D;}
	.st2{fill:#FD1D62;}
</style>
<path class="st0" d="M8.9,0v100.7c283.3,23,797.2-73.1,797.2-73.1V0H8.9z"/>
<path class="st1" d="M791.6,18c13.3,0,24.2,10.8,24.2,24.1c0,13.3-10.8,24.1-24.2,24.1s-24.2-10.8-24.2-24.1
	C767.4,28.8,778.2,18,791.6,18L791.6,18z"/>
<path class="st2" d="M791.6,56.7c8,0,14.6-6.5,14.6-14.5s-6.5-14.5-14.6-14.5S777,34.1,777,42.2S783.5,56.7,791.6,56.7 M791.6,66.3
	c-13.3,0-24.2-10.8-24.2-24.1c0-13.3,10.8-24.1,24.2-24.1s24.2,10.8,24.2,24.1C815.7,55.5,804.9,66.3,791.6,66.3L791.6,66.3
	L791.6,66.3z"/>
<path class="st1" d="M726.3,20.7c13.3,0,24.2,10.8,24.2,24.1c0,13.3-10.8,24.1-24.2,24.1s-24.2-10.8-24.2-24.1
	C702.1,31.5,712.9,20.7,726.3,20.7L726.3,20.7z"/>
<path class="st2" d="M726.3,59.4c8,0,14.6-6.5,14.6-14.5s-6.5-14.5-14.6-14.5s-14.6,6.5-14.6,14.5S718.2,59.4,726.3,59.4 M726.3,69
	c-13.3,0-24.2-10.8-24.2-24.1c0-13.3,10.8-24.1,24.2-24.1s24.2,10.8,24.2,24.1C750.4,58.2,739.6,69,726.3,69L726.3,69L726.3,69z"/>
<path class="st1" d="M761.2,32.6c13.3,0,24.2,10.8,24.2,24.1c0,13.3-10.8,24.1-24.2,24.1S737,70,737,56.7
	C737,43.4,747.9,32.6,761.2,32.6L761.2,32.6z"/>
<path class="st2" d="M761.2,71.3c8,0,14.6-6.5,14.6-14.5s-6.5-14.5-14.6-14.5s-14.6,6.5-14.6,14.5S753.2,71.3,761.2,71.3
	 M761.2,80.8C747.9,80.8,737,70,737,56.7c0-13.3,10.8-24.1,24.2-24.1s24.2,10.8,24.2,24.1C785.3,70,774.5,80.8,761.2,80.8
	L761.2,80.8L761.2,80.8z"/>
<path class="st1" d="M681.2,37.6c13.3,0,24.2,10.8,24.2,24.1c0,13.3-10.8,24.1-24.2,24.1S657,75,657,61.7
	C657,48.4,667.8,37.6,681.2,37.6L681.2,37.6z"/>
<path class="st2" d="M681.2,76.2c8,0,14.6-6.5,14.6-14.5s-6.5-14.5-14.6-14.5s-14.6,6.5-14.6,14.5S673.1,76.2,681.2,76.2
	 M681.2,85.8C667.8,85.8,657,75,657,61.7c0-13.3,10.8-24.1,24.2-24.1s24.2,10.8,24.2,24.1C705.3,75,694.5,85.8,681.2,85.8
	L681.2,85.8L681.2,85.8z"/>
<path class="st1" d="M615.8,40.2c13.3,0,24.2,10.8,24.2,24.1c0,13.3-10.8,24.1-24.2,24.1s-24.2-10.8-24.2-24.1
	C591.7,51,602.5,40.2,615.8,40.2L615.8,40.2z"/>
<path class="st2" d="M615.8,78.9c8,0,14.6-6.5,14.6-14.5s-6.5-14.5-14.6-14.5s-14.6,6.5-14.6,14.5S607.8,78.9,615.8,78.9
	 M615.8,88.5c-13.3,0-24.2-10.8-24.2-24.1c0-13.3,10.8-24.1,24.2-24.1S640,51,640,64.4C640,77.7,629.2,88.5,615.8,88.5L615.8,88.5
	L615.8,88.5z"/>
<path class="st1" d="M650.8,52.1c13.3,0,24.2,10.8,24.2,24.1c0,13.3-10.8,24.1-24.2,24.1s-24.2-10.8-24.2-24.1
	C626.6,62.9,637.4,52.1,650.8,52.1L650.8,52.1z"/>
<path class="st2" d="M650.8,90.8c8,0,14.6-6.5,14.6-14.5s-6.5-14.5-14.6-14.5s-14.6,6.5-14.6,14.5S642.8,90.8,650.8,90.8
	 M650.8,100.4c-13.3,0-24.2-10.8-24.2-24.1c0-13.3,10.8-24.1,24.2-24.1s24.2,10.8,24.2,24.1C674.9,89.6,664.1,100.4,650.8,100.4
	L650.8,100.4L650.8,100.4z"/>
<path class="st1" d="M300.2,81.5c13.3,0,24.2,10.8,24.2,24.1c0,13.3-10.8,24.1-24.2,24.1S276,118.9,276,105.6
	C276,92.3,286.8,81.5,300.2,81.5L300.2,81.5z"/>
<path class="st2" d="M300.2,120.2c8,0,14.6-6.5,14.6-14.5s-6.5-14.5-14.6-14.5s-14.6,6.5-14.6,14.5S292.1,120.2,300.2,120.2
	 M300.2,129.7c-13.3,0-24.2-10.8-24.2-24.1c0-13.3,10.8-24.1,24.2-24.1s24.2,10.8,24.2,24.1C324.3,118.9,313.5,129.7,300.2,129.7
	L300.2,129.7L300.2,129.7z"/>
<path class="st1" d="M235.8,84.1c13.3,0,24.2,10.8,24.2,24.1c0,13.3-10.8,24.1-24.2,24.1s-24.2-10.8-24.2-24.1
	C211.7,94.9,222.5,84.1,235.8,84.1L235.8,84.1z"/>
<path class="st2" d="M235.8,122.8c8,0,14.6-6.5,14.6-14.5s-6.5-14.5-14.6-14.5s-14.6,6.5-14.6,14.5S227.8,122.8,235.8,122.8
	 M235.8,132.4c-13.3,0-24.2-10.8-24.2-24.1c0-13.3,10.8-24.1,24.2-24.1S260,94.9,260,108.3C260,121.6,249.2,132.4,235.8,132.4
	L235.8,132.4L235.8,132.4z"/>
<path class="st1" d="M269.8,96c13.3,0,24.2,10.8,24.2,24.1c0,13.3-10.8,24.1-24.2,24.1s-24.2-10.8-24.2-24.1
	C245.6,106.8,256.4,96,269.8,96L269.8,96z"/>
<path class="st2" d="M269.8,134.7c8,0,14.6-6.5,14.6-14.5s-6.5-14.5-14.6-14.5s-14.6,6.5-14.6,14.5S261.7,134.7,269.8,134.7
	 M269.8,144.3c-13.3,0-24.2-10.8-24.2-24.1c0-13.3,10.8-24.1,24.2-24.1s24.2,10.8,24.2,24.1C293.9,133.5,283.1,144.3,269.8,144.3
	L269.8,144.3L269.8,144.3z"/>
<path class="st1" d="M88.5,83.5c13.3,0,24.2,10.8,24.2,24.1c0,13.3-10.8,24.1-24.2,24.1S64.3,121,64.3,107.6
	C64.3,94.3,75.1,83.5,88.5,83.5L88.5,83.5z"/>
<path class="st2" d="M88.5,122.2c8,0,14.6-6.5,14.6-14.5s-6.5-14.5-14.6-14.5s-14.6,6.5-14.6,14.5S80.5,122.2,88.5,122.2
	 M88.5,131.8c-13.3,0-24.2-10.8-24.2-24.1c0-13.3,10.8-24.1,24.2-24.1s24.2,10.8,24.2,24.1C112.6,121,101.8,131.8,88.5,131.8
	L88.5,131.8L88.5,131.8z"/>
<path class="st1" d="M24.2,86.2c13.3,0,24.2,10.8,24.2,24.1c0,13.3-10.8,24.1-24.2,24.1S0,123.6,0,110.3C0,97,10.8,86.2,24.2,86.2
	L24.2,86.2z"/>
<path class="st2" d="M24.2,124.8c8,0,14.6-6.5,14.6-14.5s-6.5-14.5-14.6-14.5s-14.6,6.5-14.6,14.5S16.1,124.8,24.2,124.8
	 M24.2,134.4C10.8,134.4,0,123.6,0,110.3C0,97,10.8,86.2,24.2,86.2S48.3,97,48.3,110.3C48.3,123.6,37.5,134.4,24.2,134.4L24.2,134.4
	L24.2,134.4z"/>
<path class="st1" d="M58.1,98.1c13.3,0,24.2,10.8,24.2,24.1c0,13.3-10.8,24.1-24.2,24.1s-24.2-10.8-24.2-24.1
	C33.9,108.9,44.8,98.1,58.1,98.1L58.1,98.1z"/>
<path class="st2" d="M58.1,136.7c8,0,14.6-6.5,14.6-14.5s-6.5-14.5-14.6-14.5s-14.6,6.5-14.6,14.5S50.1,136.7,58.1,136.7
	 M58.1,146.3c-13.3,0-24.2-10.8-24.2-24.1c0-13.3,10.8-24.1,24.2-24.1s24.2,10.8,24.2,24.1C82.3,135.5,71.4,146.3,58.1,146.3
	L58.1,146.3L58.1,146.3z"/>
</svg>
