<?xml version="1.0" encoding="utf-8"?>
<!-- Generator: Adobe Illustrator 19.0.0, SVG Export Plug-In . SVG Version: 6.00 Build 0)  -->
<svg version="1.1" id="Layer_1" xmlns="http://www.w3.org/2000/svg" xmlns:xlink="http://www.w3.org/1999/xlink" x="0px" y="0px"
	 viewBox="0 0 817.7 261.1" style="enable-background:new 0 0 817.7 261.1;" xml:space="preserve">
<style type="text/css">
	.st0{fill-rule:evenodd;clip-rule:evenodd;fill:#FD1D62;}
	.st1{fill:#870056;}
	.st2{fill-rule:evenodd;clip-rule:evenodd;fill:none;}
</style>
<path class="st0" d="M265.8,0l-40.4,64C152.7,55,85.8,76.6,85.8,76.6l-76.9-47v231.4h797.2V119.3l-487.6,28.6L265.8,0z"/>
<path class="st1" d="M106.5,205.3l1.2,6L31.8,227l-1.2-6L106.5,205.3z M106.6,166.4l-77-8.7l-0.7,6.1l77,8.7L106.6,166.4z
	 M121.3,149.2l66.3-10.4c0,0-3.5,26.7-24,32.5l12.2,81l-6,0.9l-12.1-80.9c-1.2,0.1-2.4,0.2-3.6,0.2
	C133.6,172.5,123.1,156.9,121.3,149.2z M132.3,154.8c3.9,5,10.8,10.4,21.7,10.4c1.5,0,3-0.1,4.6-0.3c10.4-1.4,16.1-10,19-17.2
	L132.3,154.8z M103.7,186.3l-77.4,4.9l0.4,6.1l77.4-4.9L103.7,186.3z M223.5,191.1l77.7,0.5l0-6.1l-77.7-0.5L223.5,191.1z
	 M301.2,161.3l-0.8-6.1l-77,10.4l0.8,6.1L301.2,161.3z M291.6,122.7l-74,23.8l1.9,5.8l74-23.8L291.6,122.7z M205.4,211.7
	c0,0,4.8,14.3-2.8,26.2c-4.7,7.2-13.9,13.6-31.6,15.4c-19.9,2-29.9-2.4-34.7-8.4c-7.1-8.7-3.2-20.8-3.2-20.8l-6.9-2.2l0,0
	c-0.2,0.6-5,15.9,4.4,27.6c7.6,9.3,21.4,13.1,41.1,11.1c17.7-1.8,30.2-8.1,37-18.7c9.5-14.7,3.9-31.8,3.6-32.5L205.4,211.7z
	 M801.7,57.5l-7.5,5.9l0,0c0.2,0.2,16.7,21.6,13.5,41.4c-1.4,8.7-6.4,15.8-15.2,21.7l5.3,8c12.3-8.2,17.8-18.2,19.4-28.2
	C821,82.3,802.3,58.2,801.7,57.5z"/>
<rect y="44.3" class="st2" width="8.9" height="144"/>
</svg>
